<svg width="24" height="24" viewBox="0 0 24 24" fill="none" xmlns="http://www.w3.org/2000/svg">
<path d="M12.8066 2.63204V11.138H20.5286C20.8397 11.138 21.1024 10.8714 21.1024 10.5288C21.1024 5.81891 17.6354 2 13.3596 2C13.0485 2 12.8066 2.28937 12.8066 2.63204Z" stroke="#FC7557" stroke-width="2" stroke-linejoin="round"/>
<path d="M9.1551 3.81166C5.11437 4.42086 2 8.24357 2 12.8621C2 17.9108 5.71582 22 10.2958 22C12.0863 22 13.7454 21.3756 15.1004 20.3095C15.3666 20.1039 15.3838 19.6851 15.1523 19.4299L9.74272 13.4712V4.39801C9.74272 4.04392 9.47311 3.76216 9.1551 3.81166Z" stroke="#FC7557" stroke-width="2" stroke-linejoin="round"/>
<path d="M21.9955 14.1185C22.037 13.7682 21.7847 13.4712 21.4632 13.4712H13.2227L18.7083 19.5099C18.9088 19.7345 19.2337 19.7498 19.4411 19.5366C20.7996 18.1392 21.7294 16.2469 21.9955 14.1185Z" stroke="#FC7557" stroke-width="2" stroke-linejoin="round"/>
</svg>
