<svg width="24" height="24" viewBox="0 0 24 24" fill="none" xmlns="http://www.w3.org/2000/svg">
<path d="M2.7616 18.25L2.20109 18.4641L2.20109 18.4641L2.7616 18.25ZM22.6 12C22.6 9.92756 22.4897 8.22123 22.1813 6.83319C21.8713 5.43834 21.3532 4.3284 20.5124 3.48761C19.6716 2.64682 18.5617 2.12874 17.1668 1.81874C15.7788 1.51026 14.0724 1.4 12 1.4V2.6C14.0451 2.6 15.6475 2.71036 16.9065 2.99016C18.1587 3.26845 19.034 3.7063 19.6639 4.33614C20.2937 4.96597 20.7316 5.84135 21.0098 7.09353C21.2896 8.35252 21.4 9.95494 21.4 12H22.6ZM12 1.4C9.92756 1.4 8.22123 1.51026 6.83319 1.81874C5.43834 2.12874 4.3284 2.64682 3.48761 3.48761C2.64682 4.3284 2.12874 5.43834 1.81874 6.83319C1.51026 8.22123 1.4 9.92756 1.4 12H2.6C2.6 9.95494 2.71036 8.35252 2.99016 7.09353C3.26845 5.84135 3.7063 4.96597 4.33614 4.33614C4.96597 3.7063 5.84135 3.26845 7.09353 2.99016C8.35252 2.71036 9.95494 2.6 12 2.6V1.4ZM12 22.6C15.956 22.6 18.654 22.2069 20.3346 20.6817C22.0327 19.1407 22.5317 16.5985 22.5934 12.8432L21.3935 12.8235C21.3316 16.5901 20.8086 18.6312 19.5282 19.7931C18.2304 20.9708 15.9935 21.4 12 21.4V22.6ZM22.5934 12.8432C22.5979 12.5695 22.6 12.2884 22.6 12H21.4C21.4 12.2825 21.3979 12.5569 21.3935 12.8235L22.5934 12.8432ZM1.4 12C1.4 14.752 1.59332 16.8727 2.20109 18.4641L3.32211 18.0359C2.79844 16.6648 2.6 14.7348 2.6 12H1.4ZM2.20109 18.4641C2.82815 20.1059 3.89066 21.1694 5.53171 21.7973C7.12357 22.4063 9.24567 22.6 12 22.6V21.4C9.26273 21.4 7.33184 21.2012 5.96052 20.6765C4.63837 20.1707 3.82748 19.3592 3.32211 18.0359L2.20109 18.4641ZM21.9934 12.8333C22.5761 12.69 22.5759 12.6894 22.5758 12.6888C22.5757 12.6886 22.5756 12.688 22.5755 12.6876C22.5753 12.6868 22.5751 12.686 22.5748 12.6851C22.5744 12.6833 22.5739 12.6815 22.5734 12.6795C22.5724 12.6756 22.5712 12.6713 22.5699 12.6665C22.5672 12.6569 22.5639 12.6457 22.5598 12.633C22.5517 12.6075 22.5406 12.5757 22.5258 12.5389C22.4961 12.4654 22.4511 12.3708 22.3845 12.2654C22.25 12.0526 22.0299 11.8 21.6811 11.5901C20.9769 11.1662 19.8606 10.9789 18.1045 11.4179L18.3955 12.5821C19.9728 12.1878 20.7282 12.4171 21.0623 12.6182C21.2327 12.7208 21.3235 12.8328 21.3701 12.9065C21.394 12.9443 21.4071 12.9734 21.4129 12.9878C21.4157 12.9949 21.4167 12.9981 21.4162 12.9967C21.416 12.9959 21.4154 12.994 21.4145 12.9907C21.414 12.989 21.4135 12.9871 21.4129 12.9847C21.4126 12.9836 21.4122 12.9823 21.4119 12.981C21.4117 12.9803 21.4115 12.9796 21.4114 12.9789C21.4113 12.9785 21.4111 12.978 21.4111 12.9778C21.411 12.9773 21.4108 12.9767 21.9934 12.8333ZM18.1045 11.4179C16.259 11.8793 15.2211 12.9286 14.4147 13.8426C14.0018 14.3105 13.6873 14.6963 13.3373 15.0107C13.0036 15.3104 12.6812 15.5019 12.299 15.5783L12.5343 16.755C13.1938 16.6231 13.7047 16.2937 14.1392 15.9034C14.5575 15.5276 14.9461 15.0541 15.3145 14.6366C16.0705 13.7797 16.9077 12.954 18.3955 12.5821L18.1045 11.4179ZM12.299 15.5783C11.453 15.7475 10.8799 15.5099 10.0874 15.1929C9.28166 14.8706 8.31981 14.5051 6.90136 14.7415L7.09864 15.9252C8.18019 15.7449 8.88501 16.0044 9.64175 16.3071C10.4118 16.6151 11.297 17.0025 12.5343 16.755L12.299 15.5783ZM6.90136 14.7415C5.48921 14.9769 4.3267 15.7907 3.54038 16.5033C3.14235 16.8641 2.82809 17.2103 2.61258 17.4673C2.50459 17.596 2.42076 17.7031 2.36297 17.7794C2.33406 17.8175 2.31162 17.848 2.29589 17.8697C2.28802 17.8806 2.28183 17.8893 2.27734 17.8956C2.27509 17.8988 2.27327 17.9013 2.27188 17.9033C2.27118 17.9043 2.27059 17.9052 2.27011 17.9059C2.26987 17.9062 2.26966 17.9065 2.26947 17.9068C2.26938 17.9069 2.26926 17.9071 2.26921 17.9071C2.2691 17.9073 2.26899 17.9075 2.7616 18.25C3.25421 18.5925 3.25412 18.5927 3.25403 18.5928C3.25401 18.5928 3.25393 18.5929 3.25389 18.593C3.25381 18.5931 3.25376 18.5932 3.25373 18.5932C3.25367 18.5933 3.25372 18.5933 3.25386 18.593C3.25416 18.5926 3.25487 18.5916 3.25599 18.59C3.25823 18.5869 3.2621 18.5815 3.26758 18.5739C3.27853 18.5588 3.29588 18.5352 3.31939 18.5041C3.36644 18.442 3.43795 18.3506 3.532 18.2384C3.72057 18.0136 3.99715 17.7089 4.34622 17.3925C5.0541 16.751 6.01079 16.1065 7.09864 15.9252L6.90136 14.7415ZM8.66667 6.4C7.41482 6.4 6.4 7.41482 6.4 8.66667L7.6 8.66667C7.6 8.07756 8.07756 7.6 8.66667 7.6L8.66667 6.4ZM6.4 8.66667C6.4 9.91851 7.41482 10.9333 8.66667 10.9333L8.66667 9.73333C8.07756 9.73333 7.6 9.25577 7.6 8.66667L6.4 8.66667ZM8.66667 10.9333C9.91851 10.9333 10.9333 9.91851 10.9333 8.66667L9.73333 8.66667C9.73333 9.25577 9.25577 9.73333 8.66667 9.73333L8.66667 10.9333ZM10.9333 8.66667C10.9333 7.41482 9.91851 6.4 8.66667 6.4L8.66667 7.6C9.25577 7.6 9.73333 8.07756 9.73333 8.66667L10.9333 8.66667Z" fill="#FC7557"/>
</svg>
