<svg width="24" height="24" viewBox="0 0 24 24" fill="none" xmlns="http://www.w3.org/2000/svg">
<path d="M7.72222 2.5C7.72222 1.94772 7.2745 1.5 6.72222 1.5C6.16993 1.5 5.72222 1.94772 5.72222 2.5H7.72222ZM5.72222 6.43246C5.72222 6.98474 6.16993 7.43246 6.72222 7.43246C7.2745 7.43246 7.72222 6.98474 7.72222 6.43246H5.72222ZM18.2778 2.5C18.2778 1.94772 17.8301 1.5 17.2778 1.5C16.7255 1.5 16.2778 1.94772 16.2778 2.5H18.2778ZM16.2778 6.43246C16.2778 6.98474 16.7255 7.43246 17.2778 7.43246C17.8301 7.43246 18.2778 6.98474 18.2778 6.43246H16.2778ZM6.72222 5.11438H17.2778V3.11438H6.72222V5.11438ZM20.5 8.75054V16.8638H22.5V8.75054H20.5ZM17.2778 20.5H6.72222V22.5H17.2778V20.5ZM3.5 16.8638V8.75054H1.5V16.8638H3.5ZM6.72222 20.5C5.69608 20.5 5.03678 20.4974 4.55181 20.4259C4.10592 20.36 3.95516 20.2548 3.85767 20.1477L2.37899 21.4944C2.89983 22.0663 3.55583 22.3005 4.25971 22.4044C4.92451 22.5025 5.75799 22.5 6.72222 22.5V20.5ZM1.5 16.8638C1.5 17.9308 1.49823 18.8227 1.5847 19.5289C1.67361 20.2551 1.8703 20.9358 2.37899 21.4944L3.85767 20.1477C3.74803 20.0273 3.63555 19.8222 3.56988 19.2859C3.50177 18.7296 3.5 17.9824 3.5 16.8638H1.5ZM20.5 16.8638C20.5 17.9824 20.4982 18.7296 20.4301 19.2859C20.3644 19.8222 20.252 20.0273 20.1423 20.1477L21.621 21.4944C22.1297 20.9358 22.3264 20.2551 22.4153 19.5289C22.5018 18.8227 22.5 17.9308 22.5 16.8638H20.5ZM17.2778 22.5C18.242 22.5 19.0755 22.5025 19.7403 22.4044C20.4442 22.3005 21.1002 22.0663 21.621 21.4944L20.1423 20.1477C20.0448 20.2548 19.8941 20.36 19.4482 20.4259C18.9632 20.4974 18.3039 20.5 17.2778 20.5V22.5ZM17.2778 5.11438C18.3039 5.11438 18.9632 5.11693 19.4482 5.18852C19.8941 5.25435 20.0448 5.35961 20.1423 5.46666L21.621 4.12C21.1002 3.54809 20.4442 3.31388 19.7403 3.20997C19.0755 3.11183 18.242 3.11438 17.2778 3.11438V5.11438ZM22.5 8.75054C22.5 7.68359 22.5018 6.79166 22.4153 6.08544C22.3264 5.3593 22.1297 4.67855 21.621 4.12L20.1423 5.46666C20.252 5.58705 20.3644 5.79216 20.4301 6.32851C20.4982 6.88479 20.5 7.63198 20.5 8.75054H22.5ZM6.72222 3.11438C5.75799 3.11438 4.92451 3.11183 4.25972 3.20997C3.55583 3.31388 2.89983 3.54809 2.37899 4.12L3.85767 5.46666C3.95516 5.35962 4.10592 5.25435 4.5518 5.18853C5.03678 5.11693 5.69608 5.11438 6.72222 5.11438V3.11438ZM3.5 8.75054C3.5 7.63198 3.50177 6.88479 3.56988 6.32851C3.63555 5.79215 3.74803 5.58705 3.85767 5.46666L2.37899 4.12C1.8703 4.67855 1.67361 5.35931 1.5847 6.08544C1.49823 6.79166 1.5 7.68359 1.5 8.75054H3.5ZM20.5 8.75054V12.2277H22.5V8.75054H20.5ZM21.5 11.2277H2.5V13.2277H21.5V11.2277ZM3.5 12.2277V8.75054H1.5V12.2277H3.5ZM5.72222 2.5V6.43246H7.72222V2.5H5.72222ZM16.2778 2.5V6.43246H18.2778V2.5H16.2778ZM1.5 12.2277V16.8638H3.5V12.2277H1.5ZM22.5 16.8638V12.2277H20.5V16.8638H22.5Z" fill="#FC7557"/>
</svg>
