<svg width="24" height="24" viewBox="0 0 24 24" fill="none" xmlns="http://www.w3.org/2000/svg">
<path d="M16.7222 5.35948H7.27778C5.49692 5.35948 4.60649 5.35948 4.05324 5.93122C3.5 6.50297 3.5 7.42319 3.5 9.26362V12.1917H20.5V9.26362C20.5 7.42319 20.5 6.50297 19.9468 5.93122C19.3935 5.35948 18.5031 5.35948 16.7222 5.35948Z" fill="#FC7557"/>
<path d="M8.02778 4C8.02778 3.58579 7.69199 3.25 7.27778 3.25C6.86356 3.25 6.52778 3.58579 6.52778 4H8.02778ZM6.52778 7.31155C6.52778 7.72576 6.86356 8.06155 7.27778 8.06155C7.69199 8.06155 8.02778 7.72576 8.02778 7.31155H6.52778ZM17.4722 4C17.4722 3.58579 17.1364 3.25 16.7222 3.25C16.308 3.25 15.9722 3.58579 15.9722 4H17.4722ZM15.9722 7.31155C15.9722 7.72576 16.308 8.06155 16.7222 8.06155C17.1364 8.06155 17.4722 7.72576 17.4722 7.31155H15.9722ZM7.27778 6.10948H16.7222V4.60948H7.27778V6.10948ZM19.75 9.26362V16.0959H21.25V9.26362H19.75ZM16.7222 19.25H7.27778V20.75H16.7222V19.25ZM4.25 16.0959V9.26362H2.75V16.0959H4.25ZM7.27778 19.25C6.36546 19.25 5.75915 19.2483 5.30837 19.1857C4.88176 19.1264 4.70737 19.0257 4.59222 18.9067L3.51426 19.9498C3.95236 20.4025 4.4998 20.5877 5.10194 20.6714C5.6799 20.7517 6.40924 20.75 7.27778 20.75V19.25ZM2.75 16.0959C2.75 16.9955 2.74851 17.7433 2.82542 18.3346C2.90483 18.9449 3.07951 19.5005 3.51426 19.9498L4.59222 18.9067C4.47373 18.7843 4.3718 18.5939 4.31289 18.1411C4.25149 17.6691 4.25 17.0366 4.25 16.0959H2.75ZM19.75 16.0959C19.75 17.0366 19.7485 17.6691 19.6871 18.1411C19.6282 18.5939 19.5263 18.7843 19.4078 18.9067L20.4857 19.9498C20.9205 19.5005 21.0952 18.9449 21.1746 18.3346C21.2515 17.7433 21.25 16.9955 21.25 16.0959H19.75ZM16.7222 20.75C17.5908 20.75 18.3201 20.7517 18.8981 20.6714C19.5002 20.5877 20.0476 20.4025 20.4857 19.9498L19.4078 18.9067C19.2926 19.0257 19.1182 19.1264 18.6916 19.1857C18.2408 19.2483 17.6345 19.25 16.7222 19.25V20.75ZM16.7222 6.10948C17.6345 6.10948 18.2408 6.11118 18.6916 6.17381C19.1182 6.23308 19.2926 6.33376 19.4078 6.45276L20.4857 5.40969C20.0476 4.95694 19.5002 4.77174 18.8981 4.68808C18.3201 4.60778 17.5908 4.60948 16.7222 4.60948V6.10948ZM21.25 9.26362C21.25 8.36393 21.2515 7.61614 21.1746 7.02491C21.0952 6.41457 20.9205 5.85898 20.4857 5.40969L19.4078 6.45276C19.5263 6.57521 19.6282 6.76561 19.6871 7.21842C19.7485 7.69034 19.75 8.32287 19.75 9.26362H21.25ZM7.27778 4.60948C6.40924 4.60948 5.6799 4.60778 5.10194 4.68808C4.4998 4.77174 3.95236 4.95694 3.51426 5.40969L4.59222 6.45276C4.70737 6.33376 4.88176 6.23308 5.30837 6.17381C5.75915 6.11118 6.36546 6.10948 7.27778 6.10948V4.60948ZM4.25 9.26362C4.25 8.32287 4.25149 7.69034 4.31289 7.21842C4.3718 6.76561 4.47373 6.57521 4.59222 6.45276L3.51426 5.40969C3.07951 5.85898 2.90482 6.41457 2.82542 7.02491C2.74851 7.61614 2.75 8.36393 2.75 9.26362H4.25ZM19.75 9.26362V12.1917H21.25V9.26362H19.75ZM20.5 11.4417H3.5V12.9417H20.5V11.4417ZM4.25 12.1917V9.26362H2.75V12.1917H4.25ZM6.52778 4V7.31155H8.02778V4H6.52778ZM15.9722 4V7.31155H17.4722V4H15.9722ZM2.75 12.1917V16.0959H4.25V12.1917H2.75ZM21.25 16.0959V12.1917H19.75V16.0959H21.25Z" fill="#FC7557"/>
</svg>
