<svg width="24" height="24" viewBox="0 0 24 24" fill="none" xmlns="http://www.w3.org/2000/svg">
<path d="M4.00071 7.99447C4.00071 8.66426 4.24634 9.40045 4.55837 10.1816C4.8704 10.9628 5.2724 11.699 5.58515 12.2567C6.43342 13.7298 7.5266 15.1801 8.77615 16.3847C10.0257 17.5893 11.4988 18.594 13.1496 19.1967C14.1092 19.5758 15.0689 20 16.1399 20C16.6755 20 17.4345 19.7993 18.1257 19.5087C18.7954 19.2188 19.3974 18.7725 19.6208 18.237C19.7101 18.0363 19.8215 17.7686 19.8886 17.4558C19.9557 17.1659 20 16.8753 20 16.6746C20 16.5632 20 16.4511 19.9779 16.429C19.9107 16.2947 19.7544 16.1833 19.5759 16.0719C19.1739 15.8713 19.1075 15.8042 18.5048 15.4471C17.88 15.0901 17.2331 14.6881 16.6748 14.3982C16.407 14.2418 16.2285 14.1747 16.1614 14.1747C15.8044 14.1747 15.3581 14.666 14.9789 15.2015C14.5769 15.737 14.1307 16.2283 13.8186 16.2283C13.6623 16.2283 13.5059 16.1612 13.3274 16.0498C13.1489 15.9384 12.9704 15.8492 12.859 15.782C10.8954 14.666 9.57872 13.3499 8.46341 11.4084C8.32917 11.1849 8.01714 10.7165 8.01714 10.4708C8.01714 10.1809 8.41914 9.84603 8.82042 9.489C9.19957 9.1541 9.60157 8.7528 9.60157 8.26153C9.60157 8.1944 9.55659 7.99375 9.46733 7.70384C9.26669 7.12331 8.99893 6.45423 8.77544 5.80729C8.66405 5.49453 8.57479 5.27175 8.55195 5.16035C8.50696 5.09323 8.48483 5.00397 8.46269 4.89258C8.44056 4.78118 8.39557 4.69193 8.37344 4.60267C8.30632 4.40202 8.19493 4.24564 8.08354 4.15638C7.97215 4.11139 7.70439 4.04499 7.43663 4.02214C7.16887 4.02214 6.85612 4 6.7226 4C6.65548 4 6.56623 4 6.47697 4.02214H6.18708C5.47305 4.3349 4.95966 4.9597 4.58051 5.6959C4.22349 6.4321 4 7.25827 4 7.99447H4.00071Z" stroke="#FC7557" stroke-width="1.5"/>
</svg>
