<svg width="24" height="24" viewBox="0 0 24 24" fill="none" xmlns="http://www.w3.org/2000/svg">
<path d="M2.50085 7.24343C2.50085 8.0388 2.79253 8.91304 3.16307 9.8407C3.5336 10.7684 4.01098 11.6426 4.38236 12.3048C5.38968 14.0542 6.68783 15.7763 8.17168 17.2068C9.65553 18.6373 11.4048 19.8304 13.3651 20.5461C14.5047 20.9963 15.6443 21.5 16.9162 21.5C17.5521 21.5 18.4535 21.2617 19.2742 20.9166C20.0696 20.5723 20.7844 20.0424 21.0498 19.4064C21.1557 19.1681 21.288 18.8502 21.3677 18.4788C21.4474 18.1345 21.5 17.7894 21.5 17.5511C21.5 17.4188 21.5 17.2857 21.4737 17.2594C21.394 17.1 21.2083 16.9677 20.9963 16.8354C20.519 16.5972 20.4401 16.5175 19.7245 16.0935C18.9826 15.6695 18.2143 15.1921 17.5513 14.8478C17.2333 14.6621 17.0213 14.5824 16.9416 14.5824C16.5177 14.5824 15.9877 15.1658 15.5375 15.8018C15.0601 16.4377 14.5302 17.0211 14.1596 17.0211C13.9739 17.0211 13.7882 16.9414 13.5763 16.8091C13.3643 16.6769 13.1523 16.5709 13.02 16.4912C10.6883 15.1658 9.12473 13.603 7.80029 11.2975C7.64089 11.0321 7.27035 10.4758 7.27035 10.1841C7.27035 9.83985 7.74772 9.44216 8.22425 9.01819C8.67449 8.6205 9.15187 8.14395 9.15187 7.56056C9.15187 7.48085 9.09845 7.24258 8.99246 6.89831C8.7542 6.20893 8.43623 5.4144 8.17083 4.64616C8.03856 4.27476 7.93257 4.0102 7.90544 3.87792C7.85202 3.79821 7.82573 3.69222 7.79945 3.55994C7.77316 3.42766 7.71974 3.32166 7.69346 3.21567C7.61375 2.9774 7.48148 2.79169 7.34921 2.6857C7.21693 2.63228 6.89896 2.55342 6.581 2.52629C6.26303 2.52629 5.89165 2.5 5.73309 2.5C5.65338 2.5 5.54739 2.5 5.4414 2.52629H5.09715C4.24924 2.89769 3.63959 3.63964 3.18935 4.51388C2.7654 5.38812 2.5 6.36919 2.5 7.24343H2.50085Z" stroke="#FC7557" stroke-width="2"/>
</svg>
