<svg width="24" height="24" viewBox="0 0 24 24" fill="none" xmlns="http://www.w3.org/2000/svg">
<path d="M17.9508 19.3458C18.3808 19.2503 18.6368 18.7706 18.4232 18.3615C17.9522 17.4595 17.2102 16.6669 16.2611 16.0629C15.0386 15.285 13.5409 14.8633 12 14.8633C10.4592 14.8633 8.96136 15.285 7.73892 16.0629C6.78975 16.6669 6.04778 17.4595 5.5768 18.3614C5.36316 18.7706 5.61921 19.2503 6.04916 19.3458C9.97422 20.2181 14.0258 20.2181 17.9508 19.3458Z" stroke="#FC7557" stroke-width="1.5" stroke-linecap="round"/>
<path d="M15.9581 8.14635C15.9581 10.4363 14.2171 12.2927 12.0695 12.2927C9.9218 12.2927 8.18079 10.4363 8.18079 8.14635C8.18079 5.85638 9.9218 4 12.0695 4C14.2171 4 15.9581 5.85638 15.9581 8.14635Z" stroke="#FC7557" stroke-width="1.5" stroke-linecap="round"/>
</svg>
