<svg width="24" height="24" viewBox="0 0 24 24" fill="none" xmlns="http://www.w3.org/2000/svg">
<path d="M19.7819 21.1823C20.3441 21.0629 20.6789 20.4632 20.3996 19.9518C19.7837 18.8244 18.8134 17.8336 17.5722 17.0786C15.9736 16.1062 14.015 15.5792 12 15.5792C9.98505 15.5792 8.0264 16.1062 6.42782 17.0786C5.1866 17.8336 4.21633 18.8243 3.60043 19.9518C3.32105 20.4632 3.6559 21.0629 4.21813 21.1823C9.3509 22.2726 14.6491 22.2726 19.7819 21.1823Z" stroke="#FC7557" stroke-width="2" stroke-linecap="round"/>
<path d="M17.176 7.18294C17.176 10.0454 14.8993 12.3659 12.0908 12.3659C9.28236 12.3659 7.00565 10.0454 7.00565 7.18294C7.00565 4.32048 9.28236 2 12.0908 2C14.8993 2 17.176 4.32048 17.176 7.18294Z" stroke="#FC7557" stroke-width="2" stroke-linecap="round"/>
</svg>
