<svg width="24" height="24" viewBox="0 0 24 24" fill="none" xmlns="http://www.w3.org/2000/svg">
<path d="M13.3314 6.21016C12.576 7.51855 10.903 7.96682 9.59454 7.21139C8.2861 6.45596 7.83777 4.78291 8.59317 3.47452C9.34857 2.16613 11.0216 1.71786 12.3301 2.47329C13.6385 3.22872 14.0868 4.90178 13.3314 6.21016ZM13.3314 6.21016L18.7174 9.31946C18.7174 9.31946 21.0865 10.6873 19.6666 13.1467C18.2466 15.6061 15.8775 14.2382 15.8775 14.2382L8.12246 9.7611C8.12246 9.7611 5.75332 8.39328 4.33339 10.8527C2.91347 13.312 5.28261 14.6799 5.28261 14.6799L10.6685 17.7892M10.6685 17.7892C9.91312 19.0975 10.3614 20.7706 11.6699 21.526C12.9783 22.2815 14.6514 21.8332 15.4068 20.5248C16.1622 19.2164 15.7139 17.5434 14.4054 16.7879C13.097 16.0325 11.4239 16.4808 10.6685 17.7892Z" stroke="#FC7557" stroke-width="1.2" stroke-linecap="round" stroke-linejoin="round"/>
</svg>
