<svg width="24" height="24" viewBox="0 0 24 24" fill="none" xmlns="http://www.w3.org/2000/svg">
<path d="M6.52266 4.90086L6.52266 4.90086C7.97317 3.52054 9.94176 2.74368 11.9977 2.75005L12.0023 2.75004C14.0582 2.74368 16.0268 3.52054 17.4773 4.90086L17.9943 4.35755L17.4773 4.90086C18.9263 6.27973 19.7398 8.14688 19.75 10.0906C19.7493 12.5549 18.2744 15.0067 16.4334 17.083C14.8481 18.871 13.0733 20.289 12 21.0764C10.9267 20.289 9.1519 18.871 7.56658 17.083C5.72564 15.0067 4.25075 12.555 4.25 10.0907C4.26027 8.14688 5.07367 6.27972 6.52266 4.90086ZM2.75001 10.085L2.75 10.085V10.0888C2.75 13.1163 4.53203 15.9215 6.44422 18.0782C8.37551 20.2564 10.5529 21.8994 11.5687 22.6135L12 22.9168L12.4313 22.6135C13.4471 21.8994 15.6245 20.2564 17.5558 18.0782C19.468 15.9215 21.25 13.1163 21.25 10.0888L21.25 10.085C21.2382 7.7226 20.2492 5.46801 18.5114 3.81424C16.7751 2.16197 14.4329 1.24311 12 1.25004C9.56712 1.24311 7.2249 2.16197 5.48862 3.81424C3.75072 5.46803 2.76186 7.72262 2.75001 10.085ZM12 12.75C13.4839 12.75 14.75 11.5955 14.75 10.0952C14.75 8.59499 13.4839 7.44048 12 7.44048C10.5161 7.44048 9.25 8.59499 9.25 10.0952C9.25 11.5955 10.5161 12.75 12 12.75Z" stroke="#FC7557" stroke-width="1.5"/>
</svg>
