<svg width="24" height="24" viewBox="0 0 24 24" fill="none" xmlns="http://www.w3.org/2000/svg">
<path d="M19.3205 8.04916C19.3205 9.64686 18.0613 10.9421 16.508 10.9421C14.9547 10.9421 13.6955 9.64686 13.6955 8.04916C13.6955 6.45145 14.9547 5.15625 16.508 5.15625C18.0613 5.15625 19.3205 6.45145 19.3205 8.04916Z" fill="#FC7557"/>
<path d="M4.67932 15.9509C4.67932 17.5486 5.9385 18.8438 7.49179 18.8438C9.04507 18.8438 10.3043 17.5486 10.3043 15.9509C10.3043 14.3532 9.04507 13.058 7.49179 13.058C5.9385 13.058 4.67932 14.3532 4.67932 15.9509Z" fill="#FC7557"/>
<path d="M19.3205 8.04916C19.3205 9.64687 18.0613 10.9421 16.508 10.9421C14.9547 10.9421 13.6955 9.64687 13.6955 8.04916M19.3205 8.04916C19.3205 6.45145 18.0613 5.15625 16.508 5.15625C14.9547 5.15625 13.6955 6.45145 13.6955 8.04916M19.3205 8.04916H20.9998M13.6955 8.04916H3M4.67932 15.9509C4.67932 17.5486 5.9385 18.8438 7.49179 18.8438C9.04507 18.8438 10.3043 17.5486 10.3043 15.9509M4.67932 15.9509C4.67932 14.3532 5.9385 13.058 7.49179 13.058C9.04507 13.058 10.3043 14.3532 10.3043 15.9509M4.67932 15.9509H3M10.3043 15.9509H20.9998" stroke="#FC7557" stroke-width="1.5" stroke-linecap="round" stroke-linejoin="round"/>
</svg>
