<svg width="31" height="30" viewBox="0 0 31 30" fill="none" xmlns="http://www.w3.org/2000/svg">
<path fill-rule="evenodd" clip-rule="evenodd" d="M0.767853 15C0.767853 6.71573 7.48358 0 15.7679 0C24.0521 0 30.7679 6.71573 30.7679 15C30.7679 23.2843 24.0521 30 15.7679 30C7.48358 30 0.767853 23.2843 0.767853 15ZM18.4951 11.8382C18.4951 16.1515 17.2741 17.0448 15.7679 17.0448C14.2616 17.0448 13.0406 16.1515 13.0406 11.8382C13.0406 7.52488 14.2616 7.49933 15.7679 7.49933C17.2741 7.49933 18.4951 7.52488 18.4951 11.8382ZM15.7679 23.863C17.2741 23.863 18.4951 22.6419 18.4951 21.1357C18.4951 19.6295 17.2741 18.4084 15.7679 18.4084C14.2616 18.4084 13.0406 19.6295 13.0406 21.1357C13.0406 22.6419 14.2616 23.863 15.7679 23.863Z" fill="#FF4D4D"/>
<path fill-rule="evenodd" clip-rule="evenodd" d="M30.7679 15C30.7679 23.2843 24.0521 30 15.7679 30C7.48358 30 0.767853 23.2843 0.767853 15C0.767853 6.71573 7.48358 0 15.7679 0C24.0521 0 30.7679 6.71573 30.7679 15ZM18.4951 11.8382C18.4951 16.1515 17.2741 17.0448 15.7679 17.0448C14.2616 17.0448 13.0406 16.1515 13.0406 11.8382C13.0406 7.52488 14.2616 7.49933 15.7679 7.49933C17.2741 7.49933 18.4951 7.52488 18.4951 11.8382ZM15.7679 23.863C17.2741 23.863 18.4951 22.6419 18.4951 21.1357C18.4951 19.6295 17.2741 18.4084 15.7679 18.4084C14.2616 18.4084 13.0406 19.6295 13.0406 21.1357C13.0406 22.6419 14.2616 23.863 15.7679 23.863Z" fill="#FF4D4D"/>
<path d="M18.4951 21.1357C18.4951 22.6419 17.2741 23.863 15.7679 23.863C14.2616 23.863 13.0406 22.6419 13.0406 21.1357C13.0406 19.6295 14.2616 18.4084 15.7679 18.4084C17.2741 18.4084 18.4951 19.6295 18.4951 21.1357Z" fill="#FEFEFE"/>
<path d="M18.4951 11.8382C18.4951 16.1515 17.2741 17.0448 15.7679 17.0448C14.2616 17.0448 13.0406 16.1515 13.0406 11.8382C13.0406 7.52488 14.2616 7.49933 15.7679 7.49933C17.2741 7.49933 18.4951 7.52488 18.4951 11.8382Z" fill="#FEFEFE"/>
</svg>
