<svg width="24" height="24" viewBox="0 0 24 24" fill="none" xmlns="http://www.w3.org/2000/svg">
<path d="M6.00564 4.35755C7.59931 2.84099 9.75518 1.9931 12 2.00004C14.2448 1.9931 16.4007 2.84099 17.9943 4.35755C19.588 5.8741 20.4893 7.93535 20.5 10.0888C20.5 15.5812 13.9856 20.6041 12 22C10.0144 20.6041 3.5 15.5812 3.5 10.0888C3.5108 7.93535 4.41196 5.8741 6.00564 4.35755Z" stroke="#FC7557" stroke-width="1.2"/>
<path d="M14 10.0952C14 11.1472 13.1046 12 12 12C10.8954 12 10 11.1472 10 10.0952C10 9.04322 10.8954 8.19043 12 8.19043C13.1046 8.19043 14 9.04322 14 10.0952Z" stroke="#FC7557" stroke-width="1.2"/>
</svg>
