<svg width="297" height="297" viewBox="0 0 297 297" fill="none" xmlns="http://www.w3.org/2000/svg">
<path d="M188.5 207.5L187.5 225.5L204.5 216.707V200.5L188.5 207.5Z" fill="#FBBF94"/>
<path fill-rule="evenodd" clip-rule="evenodd" d="M156 114L158.5 240.5L58.5 214V131L120.5 148L156 114Z" fill="#E58F5E"/>
<path fill-rule="evenodd" clip-rule="evenodd" d="M158.5 240.5L156 114L188.5 148L230.053 131.671L231 203L204.5 216.707V200.5L188.5 207.5L187.5 225.5L158.5 240.5Z" fill="#F2A371"/>
<path d="M229.5 90L138 81V111.138L156 114L229.5 90Z" fill="#D68153"/>
<path d="M138 81L58.5 98.5L138 111.138V81Z" fill="#C67548"/>
<path d="M156 114L188.5 148L230.053 131.671L280.5 114L229.5 90L156 114Z" fill="#FBBF94"/>
<path d="M156 114L138 111.138L58.5 98.5L16 119L58.5 131L120.5 148L156 114Z" fill="#FBBF94"/>
<path d="M138 81L229.5 90L257.5 64L167.5 56L138 81Z" fill="#FBBF94"/>
<path d="M58.5 98.5L138 81L108 56L22 69.5L58.5 98.5Z" fill="#FBBF94"/>
</svg>
