<svg width="24" height="24" viewBox="0 0 24 24" fill="none" xmlns="http://www.w3.org/2000/svg">
<path d="M20.5 8.05202L14.426 2M20.5 8.05202H14.426V2M20.5 8.05202V19.5774C20.4995 19.898 20.4357 20.2152 20.3124 20.5099C20.1892 20.8046 20.009 21.0708 19.7828 21.2923C19.3246 21.7469 18.7117 22.0007 18.074 22H5.92604C5.2883 22.0007 4.67535 21.7469 4.21719 21.2923C3.99097 21.0708 3.81081 20.8046 3.68756 20.5099C3.56431 20.2152 3.50051 19.898 3.5 19.5774V4.42263C3.50051 4.10199 3.56431 3.78478 3.68756 3.49007C3.81081 3.19536 3.99097 2.92924 4.21719 2.70773C4.67535 2.25312 5.2883 1.99926 5.92604 2H14.426M12 18.2916V12M12 18.2916L8.96429 15.5294M12 18.2916L15.0357 15.5294" stroke="#FC7557" stroke-width="2" stroke-linejoin="round"/>
</svg>
