<svg width="24" height="24" viewBox="0 0 24 24" fill="none" xmlns="http://www.w3.org/2000/svg">
<path d="M19 8.64422L13.9979 3.5M19 8.64422H13.9979V3.5M19 8.64422V18.4408C18.9996 18.7133 18.947 18.9829 18.8455 19.2334C18.744 19.4839 18.5957 19.7101 18.4094 19.8984C18.0321 20.2849 17.5273 20.5006 17.0021 20.5H6.99792C6.47272 20.5006 5.96794 20.2849 5.59062 19.8984C5.40433 19.7101 5.25597 19.4839 5.15446 19.2334C5.05296 18.9829 5.00042 18.7133 5 18.4408V5.55923C5.00042 5.28669 5.05296 5.01706 5.15446 4.76656C5.25597 4.51605 5.40433 4.28986 5.59062 4.10157C5.96794 3.71515 6.47272 3.49937 6.99792 3.5H13.9979M12 17.3478V12M12 17.3478L9.5 15M12 17.3478L14.5 15" stroke="#FC7557" stroke-width="1.5" stroke-linejoin="round"/>
</svg>
