<svg width="24" height="24" viewBox="0 0 24 24" fill="none" xmlns="http://www.w3.org/2000/svg">
<path d="M7.32222 2.5C7.32222 2.16863 7.05359 1.9 6.72222 1.9C6.39085 1.9 6.12222 2.16863 6.12222 2.5H7.32222ZM6.12222 6.43246C6.12222 6.76383 6.39085 7.03246 6.72222 7.03246C7.05359 7.03246 7.32222 6.76383 7.32222 6.43246H6.12222ZM17.8778 2.5C17.8778 2.16863 17.6091 1.9 17.2778 1.9C16.9464 1.9 16.6778 2.16863 16.6778 2.5H17.8778ZM16.6778 6.43246C16.6778 6.76383 16.9464 7.03246 17.2778 7.03246C17.6091 7.03246 17.8778 6.76383 17.8778 6.43246H16.6778ZM6.72222 4.71438H17.2778V3.51438H6.72222V4.71438ZM20.9 8.75054V16.8638H22.1V8.75054H20.9ZM17.2778 20.9H6.72222V22.1H17.2778V20.9ZM3.1 16.8638V8.75054H1.9V16.8638H3.1ZM6.72222 20.9C5.70846 20.9 5.01433 20.8985 4.49339 20.8216C3.9959 20.7481 3.74409 20.6171 3.56194 20.417L2.67472 21.225C3.1109 21.704 3.66585 21.9124 4.31813 22.0087C4.94696 22.1015 5.74561 22.1 6.72222 22.1V20.9ZM1.9 16.8638C1.9 17.9411 1.89894 18.8041 1.98174 19.4803C2.066 20.1685 2.24585 20.7541 2.67472 21.225L3.56194 20.417C3.37248 20.209 3.24316 19.9088 3.17284 19.3345C3.10106 18.7482 3.1 17.9721 3.1 16.8638H1.9ZM20.9 16.8638C20.9 17.9721 20.8989 18.7482 20.8272 19.3345C20.7568 19.9088 20.6275 20.209 20.4381 20.417L21.3253 21.225C21.7541 20.7541 21.934 20.1685 22.0183 19.4803C22.1011 18.8041 22.1 17.9411 22.1 16.8638H20.9ZM17.2778 22.1C18.2544 22.1 19.053 22.1015 19.6819 22.0087C20.3342 21.9124 20.8891 21.704 21.3253 21.225L20.4381 20.417C20.2559 20.6171 20.0041 20.7481 19.5066 20.8216C18.9857 20.8985 18.2915 20.9 17.2778 20.9V22.1ZM17.2778 4.71438C18.2915 4.71438 18.9857 4.71591 19.5066 4.79281C20.0041 4.86626 20.2559 4.99731 20.4381 5.19733L21.3253 4.38933C20.8891 3.9104 20.3342 3.70198 19.6819 3.60568C19.053 3.51285 18.2544 3.51438 17.2778 3.51438V4.71438ZM22.1 8.75054C22.1 7.67327 22.1011 6.81029 22.0183 6.13406C21.934 5.44587 21.7542 4.86025 21.3253 4.38933L20.4381 5.19733C20.6275 5.40535 20.7568 5.70559 20.8272 6.2799C20.8989 6.86616 20.9 7.64231 20.9 8.75054H22.1ZM6.72222 3.51438C5.74561 3.51438 4.94696 3.51285 4.31813 3.60568C3.66585 3.70198 3.1109 3.9104 2.67472 4.38933L3.56194 5.19733C3.74409 4.99731 3.9959 4.86626 4.49339 4.79281C5.01433 4.71591 5.70846 4.71438 6.72222 4.71438V3.51438ZM3.1 8.75054C3.1 7.64231 3.10106 6.86616 3.17284 6.2799C3.24316 5.70558 3.37248 5.40535 3.56194 5.19733L2.67472 4.38933C2.24585 4.86025 2.066 5.44588 1.98174 6.13406C1.89894 6.81029 1.9 7.67327 1.9 8.75054H3.1ZM20.9 8.75054V12.2277H22.1V8.75054H20.9ZM21.5 11.6277H2.5V12.8277H21.5V11.6277ZM3.1 12.2277V8.75054H1.9V12.2277H3.1ZM6.12222 2.5V6.43246H7.32222V2.5H6.12222ZM16.6778 2.5V6.43246H17.8778V2.5H16.6778ZM1.9 12.2277V16.8638H3.1V12.2277H1.9ZM22.1 16.8638V12.2277H20.9V16.8638H22.1Z" fill="#FC7557"/>
</svg>
