<svg width="24" height="24" viewBox="0 0 24 24" fill="none" xmlns="http://www.w3.org/2000/svg">
<path d="M19.5 16.0122V11.7846C19.5 10.431 19.5 9.7542 19.2059 9.15928C18.9119 8.56435 18.3596 8.12388 17.2551 7.24295L16.1837 6.38841C14.1872 4.79614 13.189 4 12 4C10.811 4 9.81275 4.79614 7.81634 6.38841L6.74491 7.24295C5.64039 8.12388 5.08813 8.56435 4.79407 9.15928C4.5 9.7542 4.5 10.431 4.5 11.7846V16.0122C4.5 17.892 4.5 18.832 5.12763 19.416C5.75526 20 6.76541 20 8.78571 20H9.32143V15.0152C9.32143 14.4646 9.80112 14.0182 10.3929 14.0182H13.6071C14.1989 14.0182 14.6786 14.4646 14.6786 15.0152V20H15.2143C17.2346 20 18.2447 20 18.8724 19.416C19.5 18.832 19.5 17.892 19.5 16.0122Z" stroke="#FC7557" stroke-width="1.5"/>
</svg>
