<svg width="24" height="24" viewBox="0 0 24 24" fill="none" xmlns="http://www.w3.org/2000/svg">
<path d="M21 17.0152V11.7308C21 10.0388 21 9.19275 20.6471 8.4491C20.2942 7.70544 19.6315 7.15485 18.3061 6.05369L17.0204 4.98552C14.6247 2.99517 13.4268 2 12 2C10.5732 2 9.3753 2.99517 6.97961 4.98552L5.6939 6.05369C4.36847 7.15485 3.70576 7.70544 3.35288 8.4491C3 9.19275 3 10.0388 3 11.7308V17.0152C3 19.3651 3 20.54 3.75315 21.27C4.50631 22 5.71849 22 8.14286 22H8.78571V15.769C8.78571 15.0807 9.36135 14.5228 10.0714 14.5228H13.9286C14.6387 14.5228 15.2143 15.0807 15.2143 15.769V22H15.8571C18.2815 22 19.4937 22 20.2468 21.27C21 20.54 21 19.3651 21 17.0152Z" stroke="#FC7557" stroke-width="1.2"/>
</svg>
