<svg width="24" height="24" viewBox="0 0 24 24" fill="none" xmlns="http://www.w3.org/2000/svg">
<path d="M20.5408 7.38164C20.5408 9.24927 19.0717 10.7633 17.2595 10.7633C15.4473 10.7633 13.9783 9.24927 13.9783 7.38164M20.5408 7.38164C20.5408 5.51401 19.0717 4 17.2595 4C15.4473 4 13.9783 5.51401 13.9783 7.38164M20.5408 7.38164H22.5M13.9783 7.38164H1.5M3.45923 16.6184C3.45923 18.486 4.92829 20 6.74048 20C8.55266 20 10.0217 18.486 10.0217 16.6184M3.45923 16.6184C3.45923 14.7507 4.92829 13.2367 6.74048 13.2367C8.55266 13.2367 10.0217 14.7507 10.0217 16.6184M3.45923 16.6184H1.5M10.0217 16.6184H22.5" stroke="#FC7557" stroke-width="1.2" stroke-linecap="round" stroke-linejoin="round"/>
</svg>
