<svg width="297" height="297" viewBox="0 0 297 297" fill="none" xmlns="http://www.w3.org/2000/svg">
<path d="M162 240.5L159.5 114C159.5 114 100.076 104.553 62 98.5C62 143.606 62 214 62 214L162 240.5Z" fill="#E58F5E"/>
<path d="M159.5 114L162 240.5L191 225.5L192 207.5L208 200.5V216.707L234.5 203L233 90L203 99.7959V126L188.5 131.5L187.062 105L159.5 114Z" fill="#F2A371"/>
<path d="M233 90L141.5 81L109.5 88.044L203 99.7959L233 90Z" fill="#FBBF94"/>
<path d="M62 98.5C100.076 104.553 159.5 114 159.5 114L187.062 105L92 91.8962C92 91.8962 73.7157 95.9211 62 98.5Z" fill="#FBBF94"/>
<path d="M203 126V99.7959L187.062 105L188.5 131.5L203 126Z" fill="#F7B182"/>
<path d="M192 207.5L191 225.5L208 216.707V200.5L192 207.5Z" fill="#FBBF94"/>
<path d="M187.062 105L203 99.7959L109.5 88.044L92 91.8962L187.062 105Z" fill="#FAB98D"/>
</svg>
