<svg width="24" height="24" viewBox="0 0 24 24" fill="none" xmlns="http://www.w3.org/2000/svg">
<path d="M13.1077 7.18401C12.4793 8.27238 11.0876 8.64526 9.99917 8.01687C8.91076 7.38847 8.53783 5.99677 9.16619 4.9084C9.79456 3.82004 11.1863 3.44716 12.2747 4.07555C13.3631 4.70394 13.736 6.09565 13.1077 7.18401ZM13.1077 7.18401L17.5879 9.77043C17.5879 9.77043 19.5586 10.9082 18.3775 12.954C17.1963 14.9999 15.2256 13.862 15.2256 13.862L8.77464 10.1378C8.77464 10.1378 6.80391 9 5.62276 11.0458C4.44162 13.0916 6.41235 14.2294 6.41235 14.2294L10.8925 16.8158M10.8925 16.8158C10.2642 17.9042 10.6371 19.2959 11.7255 19.9243C12.8139 20.5527 14.2057 20.1798 14.834 19.0914C15.4624 18.0031 15.0895 16.6114 14.001 15.983C12.9126 15.3546 11.5209 15.7275 10.8925 16.8158Z" stroke="#FC7557" stroke-width="1.5" stroke-linecap="round" stroke-linejoin="round"/>
</svg>
