<svg width="24" height="24" viewBox="0 0 24 24" fill="none" xmlns="http://www.w3.org/2000/svg">
<path d="M13.3314 6.21041C12.576 7.5188 10.903 7.96706 9.59454 7.21163C8.2861 6.4562 7.83777 4.78315 8.59317 3.47476C9.34857 2.16637 11.0216 1.71811 12.3301 2.47354C13.6385 3.22896 14.0868 4.90202 13.3314 6.21041ZM13.3314 6.21041L18.7174 9.3197C18.7174 9.3197 21.0865 10.6875 19.6666 13.1469C18.2466 15.6064 15.8775 14.2385 15.8775 14.2385L8.12246 9.76135C8.12246 9.76135 5.75332 8.39352 4.33339 10.8529C2.91347 13.3123 5.28261 14.6801 5.28261 14.6801L10.6685 17.7894M10.6685 17.7894C9.91312 19.0978 10.3614 20.7708 11.6699 21.5263C12.9783 22.2817 14.6514 21.8334 15.4068 20.5251C16.1622 19.2167 15.7139 17.5436 14.4054 16.7882C13.097 16.0328 11.4239 16.481 10.6685 17.7894Z" stroke="#FC7557" stroke-width="2" stroke-linecap="round" stroke-linejoin="round"/>
</svg>
