<svg width="31" height="30" viewBox="0 0 31 30" fill="none" xmlns="http://www.w3.org/2000/svg">
<path fill-rule="evenodd" clip-rule="evenodd" d="M0.767853 15C0.767853 23.2843 7.48358 30 15.7679 30C18.5193 30 21.0978 29.2592 23.3146 27.9661L27.8398 29.0838C28.3003 29.1975 28.7334 28.818 28.681 28.3465L28.1406 23.4828C29.7979 21.0701 30.7679 18.1483 30.7679 15C30.7679 6.71573 24.0521 0 15.7679 0C7.48358 0 0.767853 6.71573 0.767853 15ZM13.0406 18.1618C13.0406 13.8485 14.2616 12.9552 15.7679 12.9552C17.2741 12.9552 18.4951 13.8485 18.4951 18.1618C18.4951 22.4751 17.2741 23.4828 15.7679 23.4828C14.2616 23.4828 13.0406 22.4751 13.0406 18.1618ZM15.7679 6.13703C14.2616 6.13703 13.0406 7.35807 13.0406 8.8643C13.0406 10.3705 14.2616 11.5916 15.7679 11.5916C17.2741 11.5916 18.4951 10.3705 18.4951 8.8643C18.4951 7.35807 17.2741 6.13703 15.7679 6.13703Z" fill="#5E9FF3"/>
<path d="M13.0406 8.8643C13.0406 7.35807 14.2616 6.13703 15.7679 6.13703C17.2741 6.13703 18.4951 7.35807 18.4951 8.8643C18.4951 10.3705 17.2741 11.5916 15.7679 11.5916C14.2616 11.5916 13.0406 10.3705 13.0406 8.8643Z" fill="#FEFEFE"/>
<path d="M13.0406 18.1618C13.0406 13.8485 14.2616 12.9552 15.7679 12.9552C17.2741 12.9552 18.4951 13.8485 18.4951 18.1618C18.4951 22.4751 17.2741 23.4828 15.7679 23.4828C14.2616 23.4828 13.0406 22.4751 13.0406 18.1618Z" fill="#FEFEFE"/>
</svg>
