<svg width="31" height="30" viewBox="0 0 31 30" fill="none" xmlns="http://www.w3.org/2000/svg">
<path fill-rule="evenodd" clip-rule="evenodd" d="M11.6769 0C5.65202 0 0.767853 4.88417 0.767853 10.9091V19.0909C0.767853 25.1158 5.65202 30 11.6769 30H19.8588C25.8837 30 30.7679 25.1158 30.7679 19.0909V10.9091C30.7679 4.88417 25.8837 0 19.8588 0H11.6769ZM7.32438 16.464L14.6538 22.8886C15.1499 23.3235 15.8928 23.2684 16.3233 22.7647L25.6973 11.798C26.12 11.3035 26.0892 10.5535 25.6274 10.0976L24.0335 8.52376C23.544 8.0405 22.7626 8.07365 22.3134 8.59674L15.0436 17.0619L10.2821 12.8882C9.78048 12.4485 9.02798 12.5104 8.60045 13.0265L7.18994 14.7291C6.76154 15.2463 6.82176 16.0234 7.32438 16.464Z" fill="#6EE7B3"/>
<path d="M14.6538 22.8886L7.32438 16.464C6.82176 16.0234 6.76154 15.2463 7.18994 14.7291L8.60045 13.0265C9.02798 12.5104 9.78048 12.4485 10.2821 12.8882L15.0436 17.0619L22.3134 8.59674C22.7626 8.07365 23.544 8.0405 24.0335 8.52376L25.6274 10.0976C26.0892 10.5535 26.12 11.3035 25.6973 11.798L16.3233 22.7647C15.8928 23.2684 15.1499 23.3235 14.6538 22.8886Z" fill="#FEFEFE"/>
</svg>
